<?xml version="1.0" encoding="utf-8"?>
<!-- Generator: Adobe Illustrator 21.0.2, SVG Export Plug-In . SVG Version: 6.00 Build 0)  -->
<svg version="1.1" id="Layer_1" xmlns="http://www.w3.org/2000/svg" xmlns:xlink="http://www.w3.org/1999/xlink" x="0px" y="0px"
	 viewBox="0 0 40 25" style="enable-background:new 0 0 40 25;" xml:space="preserve">
<style type="text/css">
	.st0{fill:none;stroke:#000000;stroke-linejoin:round;stroke-miterlimit:10;}
</style>
<g>
	<path class="st0" d="M29.2,17.4v2.1l-3.8,1.4c-0.9,0.3-1.5,1.2-1.5,2.2v1.4h14.6V23c0-1-0.6-1.8-1.5-2.2L33,19.5v-2.2"/>
	<ellipse class="st0" cx="31" cy="13.3" rx="3.8" ry="4.6"/>
	<path class="st0" d="M34.8,12.9l-0.3,0c-1.3,0.3-2.1-0.2-2.9-1.5c-0.4,0.8-1.8,1.5-2.9,1.5c-0.5,0-1-0.1-1.5-0.4"/>
</g>
<g>
	<path class="st0" d="M16.3,10.5h2v4l4-4h3.5v-9h-15v4 M8.3,17.1v2.2l-3.9,1.4C3.4,21.1,2.8,22,2.8,23v1.5h15V23
		c0-1-0.6-1.9-1.6-2.2l-3.9-1.4V17"/>
	<ellipse class="st0" cx="10.2" cy="13" rx="3.9" ry="4.7"/>
	<path class="st0" d="M14.2,12.6l-0.4,0c-1.3,0.3-2.2-0.2-2.9-1.5c-0.4,0.9-1.8,1.5-3,1.5c-0.6,0-1-0.1-1.5-0.4"/>
	<path d="M22.3,6h-1v1h1V6z M19.3,6h-1v1h1V6z M16.3,6h-1v1h1V6z"/>
</g>
</svg>
